<?xml version="1.0" standalone="no"?>
<!DOCTYPE svg PUBLIC "-//W3C//DTD SVG 20010904//EN"
 "http://www.w3.org/TR/2001/REC-SVG-20010904/DTD/svg10.dtd">
<svg version="1.0" xmlns="http://www.w3.org/2000/svg"
 width="633.000000pt" height="633.000000pt" viewBox="0 0 633.000000 633.000000"
 preserveAspectRatio="xMidYMid meet">
<metadata>
Created by potrace 1.11, written by Peter Selinger 2001-2013
</metadata>
<g transform="translate(0.000000,633.000000) scale(0.100000,-0.100000)"
fill="#000000" stroke="none">
<path d="M183 3183 l0 -3103 61 0 c34 0 1361 -2 2949 -3 2881 -2 2888 -2 2892
18 3 11 4 1408 2 3105 l-2 3085 -2951 0 -2951 0 0 -3102z"/>
<path d="M180 15 c0 -13 335 -15 2955 -15 2620 0 2955 2 2955 15 0 13 -335 15
-2955 15 -2620 0 -2955 -2 -2955 -15z"/>
</g>
</svg>
