<?xml version="1.0" encoding="utf-8"?>
<!-- Generator: Adobe Illustrator 25.2.1, SVG Export Plug-In . SVG Version: 6.00 Build 0)  -->
<svg version="1.1" id="レイヤー_1" xmlns="http://www.w3.org/2000/svg" xmlns:xlink="http://www.w3.org/1999/xlink" x="0px"
	 y="0px" viewBox="0 0 291.5 44" style="enable-background:new 0 0 291.5 44;" xml:space="preserve">
<style type="text/css">
	.st0{fill:#FFFFFF;stroke:#282846;stroke-width:0.5;stroke-miterlimit:10;}
	.st1{fill:none;stroke:#282846;stroke-width:0.4;stroke-miterlimit:10;}
	.st2{fill:none;stroke:#282846;stroke-width:0.5;stroke-miterlimit:10;}
	.st3{fill:#282846;}
</style>
<g>
	<rect x="4" y="3.4" class="st0" width="35.2" height="37.2"/>
	<g>
		<path class="st1" d="M13.4,34.5v-4.4h1.5c0.2,0.5,0.9,2.5,1,2.7h0c-0.1-0.6-0.1-1.4-0.1-2v-0.7H17v4.4h-1.5
			c-0.1-0.4-0.9-2.7-0.9-2.8h0c0.1,0.5,0.1,1.4,0.1,2.1v0.7H13.4z"/>
		<path class="st1" d="M20,33.4l-0.2,1h-1.4l1-4.4h2l1,4.4H21l-0.2-1H20z M20.7,32.7c-0.1-0.6-0.2-1.4-0.3-1.8h-0.1
			c0,0.3-0.2,1.3-0.3,1.8H20.7z"/>
		<path class="st1" d="M23.8,30.1h1.6c1.2,0,1.7,0.3,1.7,1v0.2c0,0.6-0.3,0.8-0.7,0.9c0.3,0.1,0.8,0.2,0.8,0.9v0.3
			c0,0.8-0.5,1.1-1.8,1.1h-1.7V30.1z M25.3,31.8c0.4,0,0.6-0.1,0.6-0.4v-0.2c0-0.3-0.1-0.4-0.6-0.4h-0.2v1.1H25.3z M25.1,33.8h0.3
			c0.5,0,0.6-0.1,0.6-0.5V33c0-0.3-0.1-0.5-0.7-0.5h-0.2V33.8z"/>
		<path class="st1" d="M30.2,30.1v4.4h-1.3v-4.4H30.2z"/>
	</g>
	<g>
		<path class="st2" d="M24.5,16.8v11.3H13.7v-8.5h-1.9v-1h1.9v-1.8H24.5z M24.5,9.9v1H13.7v-1H24.5z M14.9,18.6h2.7v-0.7h-2.7V18.6z
			 M17.5,27.1v-7.5h-2.7v7.5H17.5z M22.6,11.6v4.5h-6.9v-4.5H22.6z M21.4,12.7h-4.6v2.4h4.6V12.7z M23.3,17.8h-4.6v0.7h3.9v1h-3.9
			v7.5h4.6V17.8z M30.2,9.9v18.2h-5v-1h3.8V9.9H30.2z M26.4,24.7h-1.2V9.9h1.2V24.7z"/>
	</g>
	<g>
		<path class="st3" d="M52.2,15.8v-1.3h12v1.3H52.2z M62,31.9h-7.8v0.7h-1.6v-9.1h11.1v9.1H62V31.9z M53.3,21.8v-4.5h9.8v4.5H53.3z
			 M57.3,24.7h-3.2V27h3.2V24.7z M54.2,30.6h3.2v-2.4h-3.2V30.6z M61.6,18.4h-6.7v2.3h6.7V18.4z M62,27v-2.3h-3.1V27H62z M58.8,30.6
			H62v-2.4h-3.1V30.6z M65.4,27.6V15.2h1.7v12.4H65.4z M69.1,32.5h-2.5l-0.3-1.5h2c0.6,0,0.9-0.3,0.9-0.9V13.6h1.7V31
			c0,0.5-0.2,0.9-0.6,1.1C69.9,32.4,69.5,32.5,69.1,32.5z"/>
		<path class="st3" d="M75.5,32.4l-0.4-1.2c3.4-0.8,6.2-1.9,8.1-3.3h-7.8v-1.3h9v-1.7h-7.4v-1.2h7.4v-1.8h-7.9v-1.3H81L80,18.4h-4.2
			v-1.3h3.2l-1.3-2.7l1.5-0.4l1.4,3.1h1.9v-3.4H84v3.4h2.7v-3.4h1.6v3.4h2l1.4-3.1l1.5,0.4l-1.4,2.7h3.5v1.3h-4.4l-1.2,2.3h4.8v1.3
			h-8.3v1.8h7.7v1.2h-7.7v1.7h9.2v1.3h-7.9c1,0.6,2.3,1.2,3.9,1.8s3.1,1,4.4,1.3l-0.7,1.4c-3.6-0.8-6.5-2.1-9-3.9v4.4h-1.6v-4.2
			c-1,0.8-2.4,1.5-4.1,2.2C78.8,31.6,77.1,32.1,75.5,32.4z M81.6,18.4l1.1,2.3H88l1.1-2.3H81.6z"/>
		<path class="st3" d="M103.5,31.7L102,32c-0.7-2.3-1.1-4.8-1.1-7.5c0-3,0.5-6.2,1.4-9.6l1.6,0.3c-1,3.2-1.5,6.3-1.5,9.4
			C102.5,27.1,102.9,29.4,103.5,31.7z M117.9,31.2c-1.5,0.2-2.9,0.2-4.3,0.2c-2,0-3.4-0.1-4.4-0.3s-1.7-0.6-2.2-1.1
			c-0.5-0.5-0.8-1.2-0.8-2c0-1.2,0.5-2.5,1.6-3.8l1.2,0.7c-0.9,1-1.3,2-1.3,3.1c0,0.5,0.2,1,0.7,1.3c0.5,0.3,1.1,0.6,1.9,0.7
			s1.9,0.2,3.3,0.2c1.5,0,2.9-0.1,4.2-0.3V31.2z M117.8,17.7c-1.1,0-2.2,0-3.2,0c-1.5,0-4.1,0.1-7.9,0.3c0-0.3,0-0.8-0.1-1.4
			c3.6-0.2,6.6-0.3,8.8-0.3c1.1,0,1.9,0,2.3,0v0.1C117.8,16.7,117.8,17.1,117.8,17.7z"/>
		<path class="st3" d="M125.3,20.5v12.3h-1.6V14.2h7.7v6.4H125.3z M125.3,16.8h4.5v-1.6h-4.5V16.8z M129.8,17.9h-4.5v1.5h4.5V17.9z
			 M132.6,27.9c-1,2-2.8,3.3-5.3,3.9l-0.4-1.1c1-0.3,2-0.7,2.8-1.3c0.8-0.6,1.4-1.3,1.7-2.1H127v-1.2h4.7v-1.9h-4.3v-1.2h2.4
			l-0.8-1.7l1.3-0.3l1,2h2.5l1.1-2l1.3,0.3l-1.1,1.7h2.8v1.2h-4.7v1.9h5.1v1.2h-4.6c1,1.5,2.3,2.6,4,3.3l-0.8,1.1
			C135,31,133.6,29.7,132.6,27.9z M140,32.7h-1.9l-0.2-1.4h1.5c0.2,0,0.4-0.1,0.5-0.2c0.2-0.1,0.2-0.3,0.2-0.5v-10H134v-6.4h7.8
			v16.9C141.8,32.2,141.2,32.7,140,32.7z M135.5,16.8h4.6v-1.6h-4.6V16.8z M140.2,17.9h-4.6v1.5h4.6V17.9z"/>
		<path class="st3" d="M166.2,18.1h-6.7v4.1c0.5,0.8,0.7,1.9,0.7,3.4c0,1.9-0.7,3.4-2.1,4.7s-3.1,2-5.1,2.1l-0.4-1.3
			c1.7-0.1,3.1-0.7,4.3-1.7c1.2-1,1.7-2.3,1.7-3.9c0-0.3,0-0.5,0-0.7c-0.2,0.8-0.6,1.5-1.2,1.9s-1.4,0.7-2.3,0.7c-1,0-1.9-0.3-2.6-1
			c-0.7-0.7-1.1-1.5-1.1-2.5c0-1.1,0.4-2.1,1.2-2.8s1.8-1.1,2.9-1.1c0.9,0,1.7,0.3,2.3,0.8v-2.5h-10.6v-1.4h10.6v-2.5h1.7v2.5h6.7
			V18.1z M157.9,22.4c-0.4-0.8-1.2-1.2-2.5-1.2c-0.6,0-1.2,0.3-1.7,0.8c-0.5,0.5-0.7,1.1-0.7,1.7c0,0.7,0.2,1.2,0.6,1.6
			c0.4,0.4,0.9,0.6,1.6,0.6c0.8,0,1.5-0.3,2-0.8c0.5-0.5,0.8-1.3,0.8-2.1V22.4z"/>
		<path class="st3" d="M182.9,30.7c2.6-0.6,4-2,4-4.1c0-1.3-0.5-2.3-1.5-3c-1-0.7-2.3-1.1-3.9-1.1c-1.1,0-2.2,0.1-3.3,0.4
			s-2.3,0.9-3.7,1.7c-1.4,0.9-2.3,1.5-2.9,2l-0.8-1.3c4.3-2.8,8.5-5.7,12.6-8.7l-10.7,0v-1.4h12.9l0.7,1.1l-7.5,5.2l0.1,0.1
			c0.9-0.3,1.7-0.4,2.6-0.4c2,0,3.7,0.5,5,1.4s1.9,2.2,1.9,3.9c0,1.9-0.8,3.4-2.4,4.4c-1.6,1-3.7,1.5-6.4,1.5c-3.7,0-5.5-1-5.5-3
			c0-0.8,0.4-1.5,1.1-2c0.8-0.5,1.6-0.8,2.5-0.8c1.3,0,2.4,0.4,3.3,1.1C182.1,28.4,182.7,29.4,182.9,30.7z M181.3,31
			c-0.4-2-1.5-3-3.3-3c-0.6,0-1.1,0.1-1.5,0.4c-0.5,0.3-0.7,0.7-0.7,1.1c0,1.1,1.2,1.6,3.7,1.6C180.1,31.1,180.7,31.1,181.3,31z"/>
		<path class="st3" d="M196.3,25.9V22h-2.5v-1.3h2.5v-3.1c-0.8,0.8-1.5,1.5-2.3,1.9l-0.9-1c0.9-0.6,1.7-1.4,2.6-2.5
			c0.9-1.1,1.5-2,1.9-2.7l1.7,0.3c-0.2,0.5-0.7,1.2-1.4,2.1h15v1.3h-2v3.7h2.7V22h-2.7v3.9h2.2v1.3h-18.9v-1.3H196.3z M195.1,32.8
			l-1.5-0.6c0.4-0.4,0.8-1.1,1.3-1.9c0.5-0.9,0.9-1.6,1.1-2.2l1.6,0.4c-0.2,0.6-0.6,1.4-1.2,2.4S195.4,32.5,195.1,32.8z M197.9,17.1
			v3.7h2.7v-3.7H197.9z M197.9,22v3.9h2.7V22H197.9z M200.5,32.6l-1-4.1l1.6-0.3c0.4,1.2,0.8,2.5,1.2,4.2L200.5,32.6z M202.2,17.1
			v3.7h2.7v-3.7H202.2z M202.2,25.9h2.7V22h-2.7V25.9z M205.9,32.4c-0.2-0.8-0.7-2.1-1.5-4.1L206,28c0.8,1.7,1.3,3.1,1.6,4.1
			L205.9,32.4z M206.5,20.8h2.8v-3.7h-2.8V20.8z M206.5,25.9h2.8V22h-2.8V25.9z M212,32.5c-0.8-1.5-1.6-2.9-2.6-4.2l1.6-0.5
			c0.6,0.9,1.5,2.3,2.7,4.2L212,32.5z"/>
		<path class="st3" d="M217.9,29.8l-1-0.9c0.6-0.6,1.3-1.6,2.2-3.1c0.9-1.5,1.5-2.8,1.9-3.9h-3.5v-1.3h3.8v-6.9h1.6v6.9h2.9v1.3
			h-2.9v0.8c0.5,0.7,1.6,1.6,3.1,2.8l-0.9,1.3c-0.8-0.6-1.5-1.4-2.2-2.1v8.2h-1.6v-8.2C220.2,26.7,219.1,28.4,217.9,29.8z
			 M218.6,19.4c-0.1-1.1-0.4-2.6-0.7-4.3l1.5-0.2l0.7,4.3L218.6,19.4z M225.5,19.3l-1.3-0.1l0.8-4.4l1.5,0.2L225.5,19.3z
			 M226.1,28.3l0-1.4l7.3-0.9V13.6h1.7v12.2l2.1-0.2v1.4l-2.1,0.2v5.4h-1.7v-5.2L226.1,28.3z M230.1,24.8c-0.9-1.3-2-2.7-3.2-4.2
			l1.1-0.9c1.1,1.2,2.2,2.5,3.4,4L230.1,24.8z M231.3,19.6c-0.9-1.1-1.9-2.5-3.3-4.1l1.2-0.9c1.5,1.6,2.6,2.9,3.3,4L231.3,19.6z"/>
		<path class="st3" d="M244.6,22.7c-0.9,2-2,3.9-3.5,5.5l-0.9-0.8c0.9-1.2,1.7-2.6,2.6-4.2c0.8-1.6,1.4-3,1.7-4.2h-3.2v-1.3h3.3
			v-4.2h1.7v4.2h2.5V19h-2.5v2.2c0.9,1.1,1.9,2,3,2.7l-0.9,1.2c-0.9-0.8-1.6-1.4-2.1-2v9.7h-1.7V22.7z M258.3,31.5h-6.6v1h-1.6V14.4
			h9.8v18.1h-1.7V31.5z M258.3,19.6v-3.9h-6.6v3.9H258.3z M251.7,24.7h6.6v-3.9h-6.6V24.7z M251.7,30.3h6.6V26h-6.6V30.3z"/>
		<path class="st3" d="M264.6,18.3v-1.2h6.8v1.2H264.6z M266.7,31.9v0.8h-1.5v-6.8h5.7v6H266.7z M265.4,15.4v-1.2h5.6v1.2H265.4z
			 M265.4,21.2V20h5.5v1.2H265.4z M265.4,24.1v-1.2h5.5v1.2H265.4z M269.3,27.1h-2.6v3.7h2.6V27.1z M277.8,27.9
			c-0.5,1.1-1.3,2.1-2.3,3s-2.2,1.5-3.6,1.8l-0.5-1.1c1.6-0.5,2.9-1.3,3.9-2.6c1-1.2,1.5-2.5,1.5-3.9V22h1.6v3.6
			c0,0.4,0.2,1,0.6,1.7s1.1,1.5,2.2,2.3c1.1,0.8,2.2,1.5,3.4,1.8l-0.9,1.2c-1.2-0.4-2.3-1-3.4-1.8C279.3,30,278.4,29,277.8,27.9z
			 M277.9,18.7c-1,2.1-3,3.6-5.9,4.4l-0.5-1.1c1.6-0.4,2.9-1.2,3.9-2.2c1-1,1.5-2.2,1.5-3.5v-2.8h1.6v3.1c0.3,1.2,1,2.3,2.2,3.2
			c1.2,0.9,2.5,1.6,3.9,2l-0.8,1.2c-1.4-0.4-2.6-1-3.6-1.8C279.1,20.4,278.4,19.6,277.9,18.7z M273.5,28.4l-1.4-0.5
			c0.6-1,1.2-2.4,1.7-4.1l1.4,0.3C274.7,26.1,274.1,27.5,273.5,28.4z M273.7,18.7l-1.3-0.5c0.6-1,1.1-2.1,1.5-3.4l1.4,0.2
			C274.7,16.7,274.2,17.9,273.7,18.7z M281.5,27.9l-1.3-0.5c0.5-0.8,1.2-2.1,1.9-3.8l1.5,0.4C282.7,25.8,282,27.1,281.5,27.9z
			 M281.7,18.5l-1.3-0.4c0.5-0.8,1-1.9,1.6-3.5l1.5,0.4C282.7,16.7,282.1,17.8,281.7,18.5z"/>
	</g>
</g>
</svg>
